<svg width="42" height="49" viewBox="0 0 42 49" fill="none" xmlns="http://www.w3.org/2000/svg">
<path d="M24.3941 46.9608C30.4877 41.7955 41.3531 31.2149 41.5256 21.3343C41.621 15.8674 39.5359 10.5864 35.729 6.65305C31.922 2.71971 26.7051 0.456253 21.2259 0.360613C15.7467 0.264972 10.4539 2.34498 6.51204 6.14306C2.57016 9.94115 0.302029 15.1462 0.206603 20.6131C0.034137 30.4937 10.5203 41.4469 16.4333 46.8218C17.5116 47.8164 18.9191 48.3803 20.3873 48.4059C21.8555 48.4316 23.2817 47.9171 24.3941 46.9608ZM13.9796 20.8535C14.0114 19.0312 14.7674 17.2962 16.0814 16.0302C17.3954 14.7642 19.1596 14.0708 20.986 14.1027C22.8124 14.1346 24.5514 14.8891 25.8204 16.2002C27.0894 17.5113 27.7844 19.2716 27.7526 21.0939C27.7208 22.9163 26.9647 24.6513 25.6508 25.9173C24.3368 27.1833 22.5726 27.8767 20.7462 27.8448C18.9197 27.8129 17.1808 27.0584 15.9118 25.7473C14.6428 24.4362 13.9478 22.6758 13.9796 20.8535Z" fill="#536CF4"/>
</svg>
