<svg width="19" height="14" viewBox="0 0 19 14" fill="none" xmlns="http://www.w3.org/2000/svg">
<path fill-rule="evenodd" clip-rule="evenodd" d="M17.4417 1.96467L10.0765 8.064C9.86721 8.2374 9.60395 8.33229 9.33217 8.33229C9.06038 8.33229 8.79712 8.2374 8.58783 8.064L1.22617 1.96467C1.18665 2.08356 1.16656 2.20805 1.16667 2.33333V11.6667C1.16667 11.9761 1.28958 12.2728 1.50838 12.4916C1.72717 12.7104 2.02391 12.8333 2.33333 12.8333H16.3333C16.6428 12.8333 16.9395 12.7104 17.1583 12.4916C17.3771 12.2728 17.5 11.9761 17.5 11.6667V2.33333C17.5005 2.20811 17.4808 2.08362 17.4417 1.96467ZM2.33333 0H16.3333C16.9522 0 17.5457 0.245833 17.9832 0.683417C18.4208 1.121 18.6667 1.71449 18.6667 2.33333V11.6667C18.6667 12.2855 18.4208 12.879 17.9832 13.3166C17.5457 13.7542 16.9522 14 16.3333 14H2.33333C1.71449 14 1.121 13.7542 0.683417 13.3166C0.245833 12.879 0 12.2855 0 11.6667V2.33333C0 1.71449 0.245833 1.121 0.683417 0.683417C1.121 0.245833 1.71449 0 2.33333 0ZM2.08833 1.16667L8.59367 6.53683C8.80202 6.70892 9.06364 6.80335 9.33387 6.80399C9.6041 6.80463 9.86617 6.71144 10.0753 6.54033L16.646 1.16667H2.08833Z" fill="#B4B4B4"/>
</svg>
