<svg width="20" height="20" viewBox="0 0 20 20" fill="none" xmlns="http://www.w3.org/2000/svg">
<path d="M10 17C13.866 17 17 13.866 17 10C17 6.13401 13.866 3 10 3C6.13401 3 3 6.13401 3 10C3 13.866 6.13401 17 10 17Z" stroke="#5D5D5D" stroke-width="2"/>
<path d="M10 12C11.1046 12 12 11.1046 12 10C12 8.89543 11.1046 8 10 8C8.89543 8 8 8.89543 8 10C8 11.1046 8.89543 12 10 12Z" fill="#5D5D5D" stroke="#5D5D5D" stroke-width="2"/>
<path d="M10 3V1M17 10H19M10 19V17M1 10H3" stroke="#5D5D5D" stroke-width="2" stroke-linecap="round"/>
</svg>
