<svg width="26" height="15" viewBox="0 0 26 15" fill="none" xmlns="http://www.w3.org/2000/svg">
<path d="M25.248 2.88585C25.248 4.14825 24.2151 5.18112 22.9527 5.18112C22.7547 5.18421 22.5573 5.15712 22.3674 5.10079L18.2818 9.1749C18.3392 9.35852 18.3622 9.56509 18.3622 9.77167C18.3622 11.0341 17.3293 12.0669 16.0669 12.0669C14.8045 12.0669 13.7716 11.0341 13.7716 9.77167C13.7716 9.56509 13.7946 9.35852 13.852 9.1749L10.9255 6.24842C10.7419 6.30581 10.5353 6.32876 10.3287 6.32876C10.1222 6.32876 9.91558 6.30581 9.73196 6.24842L4.51021 11.4816C4.56759 11.6653 4.59055 11.8604 4.59055 12.0669C4.59055 13.3293 3.55767 14.3622 2.29527 14.3622C1.03287 14.3622 0 13.3293 0 12.0669C0 10.8045 1.03287 9.77167 2.29527 9.77167C2.50185 9.77167 2.69695 9.79462 2.88057 9.852L8.11379 4.63026C8.05641 4.44664 8.03345 4.24006 8.03345 4.03349C8.03345 2.77109 9.06633 1.73821 10.3287 1.73821C11.5911 1.73821 12.624 2.77109 12.624 4.03349C12.624 4.24006 12.601 4.44664 12.5437 4.63026L15.4701 7.55673C15.6538 7.49935 15.8603 7.47639 16.0669 7.47639C16.2735 7.47639 16.4801 7.49935 16.6637 7.55673L20.7378 3.47114C20.6815 3.28125 20.6544 3.08389 20.6575 2.88585C20.6575 1.62345 21.6903 0.590576 22.9527 0.590576C24.2151 0.590576 25.248 1.62345 25.248 2.88585ZM25.248 2.88585C25.248 4.14825 24.2151 5.18112 22.9527 5.18112C22.7547 5.18421 22.5573 5.15712 22.3674 5.10079L18.2818 9.1749C18.3392 9.35852 18.3622 9.56509 18.3622 9.77167C18.3622 11.0341 17.3293 12.0669 16.0669 12.0669C14.8045 12.0669 13.7716 11.0341 13.7716 9.77167C13.7716 9.56509 13.7946 9.35852 13.852 9.1749L10.9255 6.24842C10.7419 6.30581 10.5353 6.32876 10.3287 6.32876C10.1222 6.32876 9.91558 6.30581 9.73196 6.24842L4.51021 11.4816C4.56759 11.6653 4.59055 11.8604 4.59055 12.0669C4.59055 13.3293 3.55767 14.3622 2.29527 14.3622C1.03287 14.3622 0 13.3293 0 12.0669C0 10.8045 1.03287 9.77167 2.29527 9.77167C2.50185 9.77167 2.69695 9.79462 2.88057 9.852L8.11379 4.63026C8.05641 4.44664 8.03345 4.24006 8.03345 4.03349C8.03345 2.77109 9.06633 1.73821 10.3287 1.73821C11.5911 1.73821 12.624 2.77109 12.624 4.03349C12.624 4.24006 12.601 4.44664 12.5437 4.63026L15.4701 7.55673C15.6538 7.49935 15.8603 7.47639 16.0669 7.47639C16.2735 7.47639 16.4801 7.49935 16.6637 7.55673L20.7378 3.47114C20.6815 3.28125 20.6544 3.08389 20.6575 2.88585C20.6575 1.62345 21.6903 0.590576 22.9527 0.590576C24.2151 0.590576 25.248 1.62345 25.248 2.88585Z" fill="#5D5D5D"/>
</svg>
