<svg width="50" height="32" viewBox="0 0 50 32" fill="none" xmlns="http://www.w3.org/2000/svg">
<path d="M0 0H50V32H0V0Z" fill="#012169"/>
<path d="M5.85938 0L24.9219 12.0667L43.9062 0H50V4.13333L31.25 16.0667L50 27.9333V32H43.75L25 20.0667L6.32812 32H0V28L18.6719 16.1333L0 4.26667V0H5.85938Z" fill="white"/>
<path d="M33.125 18.7333L50 29.3333V32L28.8281 18.7333H33.125ZM18.75 20.0667L19.2188 22.4L4.21875 32H0L18.75 20.0667ZM50 0V0.2L30.5469 12.7333L30.7031 9.8L46.0938 0H50ZM0 0L18.6719 11.7333H13.9844L0 2.8V0Z" fill="#C8102E"/>
<path d="M18.8281 0V32H31.3281V0H18.8281ZM0 10.6667V21.3333H50V10.6667H0Z" fill="white"/>
<path d="M0 12.8667V19.2667H50V12.8667H0ZM21.3281 0V32H28.8281V0H21.3281Z" fill="#C8102E"/>
</svg>
