<svg width="44" height="33" viewBox="0 0 44 33" fill="none" xmlns="http://www.w3.org/2000/svg">
<mask id="mask0_1_370" style="mask-type:luminance" maskUnits="userSpaceOnUse" x="0" y="0" width="44" height="33">
<path d="M0 0H43.1019V32.3248H0V0Z" fill="white"/>
</mask>
<g mask="url(#mask0_1_370)">
<path fill-rule="evenodd" clip-rule="evenodd" d="M44.5982 32.3248H-1.50256V0H44.5982V32.3248Z" fill="white"/>
<path fill-rule="evenodd" clip-rule="evenodd" d="M21.9518 16.1876C21.9518 18.0713 21.2035 19.8779 19.8715 21.2099C18.5395 22.5419 16.7329 23.2902 14.8492 23.2902C12.9655 23.2902 11.1589 22.5419 9.82689 21.2099C8.49489 19.8779 7.74658 18.0713 7.74658 16.1876C7.74658 14.3039 8.49489 12.4973 9.82689 11.1653C11.1589 9.83327 12.9655 9.08496 14.8492 9.08496C16.7329 9.08496 18.5395 9.83327 19.8715 11.1653C21.2035 12.4973 21.9518 14.3039 21.9518 16.1876Z" fill="white"/>
<path fill-rule="evenodd" clip-rule="evenodd" d="M30.8601 16.6045C30.8601 21.7184 26.7563 25.8727 21.6867 25.8727C16.617 25.8727 12.5195 21.7184 12.5195 16.6045C12.5195 11.4906 16.6233 7.33008 21.693 7.33008C26.7627 7.33008 30.8601 11.4906 30.8601 16.6045Z" fill="#C70000"/>
<path fill-rule="evenodd" clip-rule="evenodd" d="M2.92944 8.00549L8.20748 1.90039L9.46386 2.97999L4.17951 9.0914L2.92944 8.00549ZM4.65933 9.50178L9.93737 3.39668L11.1937 4.46996L5.90939 10.5877L4.65933 9.50178Z" fill="black"/>
<path fill-rule="evenodd" clip-rule="evenodd" d="M2.92944 8.00549L8.20748 1.90039L9.46386 2.97999L4.17951 9.0914L2.92944 8.00549Z" fill="black"/>
<path fill-rule="evenodd" clip-rule="evenodd" d="M2.92944 8.00549L8.20748 1.90039L9.46386 2.97999L4.17951 9.0914L2.92944 8.00549ZM6.42709 11.0359L11.7051 4.91822L12.9615 6.00413L7.67715 12.1155L6.42709 11.0359Z" fill="black"/>
<path fill-rule="evenodd" clip-rule="evenodd" d="M2.92944 8.00549L8.20748 1.90039L9.46386 2.97999L4.17951 9.0914L2.92944 8.00549Z" fill="black"/>
<path fill-rule="evenodd" clip-rule="evenodd" d="M2.92944 8.00546L8.20748 1.90036L9.46386 2.97996L4.17951 9.09137L2.92944 8.00546ZM35.0522 1.89404L40.2924 8.04334L39.0297 9.11662L33.7896 2.96733L35.0522 1.89404ZM31.5357 4.89293L36.7758 11.0422L35.5131 12.1155L30.273 5.96621L31.5357 4.89293Z" fill="black"/>
<path fill-rule="evenodd" clip-rule="evenodd" d="M32.4133 8.43481L37.363 4.1543L38.2911 5.22758L32.9878 9.98792L32.4006 8.43481H32.4133Z" fill="white"/>
<path fill-rule="evenodd" clip-rule="evenodd" d="M38.512 23.5115L33.436 29.5598L32.1923 28.5244L37.2683 22.4761L38.512 23.5115ZM33.3098 3.37793L38.5499 9.52722L37.2935 10.6005L32.0597 4.4449L33.3098 3.37793ZM40.2356 24.9447L35.1533 30.9929L33.9032 29.9575L38.9855 23.9092L40.2356 24.9447ZM36.7569 22.0531L31.6809 28.1014L30.4371 27.066L35.5131 21.0177L36.7569 22.0531Z" fill="black"/>
<path fill-rule="evenodd" clip-rule="evenodd" d="M12.6521 14.969C12.9425 17.305 13.3655 19.9062 16.9579 20.1713C18.3026 20.2534 20.9227 19.8557 21.8192 16.1812C23.0062 12.6583 26.5543 11.6482 28.9724 13.5548C30.355 14.4513 30.7338 15.8719 30.8222 16.9452C30.7149 20.3544 28.7451 23.3217 26.226 24.6476C23.3218 26.3711 19.3065 26.409 15.7899 23.7952C14.2052 22.3116 11.9892 19.5652 12.6521 14.969Z" fill="#3D5897"/>
<path fill-rule="evenodd" clip-rule="evenodd" d="M33.5749 23.4229L38.5372 27.6907L37.6155 28.764L32.1165 24.231L33.5685 23.4229H33.5749Z" fill="white"/>
<path fill-rule="evenodd" clip-rule="evenodd" d="M5.92834 22.5767L11.1685 28.7196L9.90581 29.7929L4.66565 23.6499L5.92834 22.5767Z" fill="black"/>
<path fill-rule="evenodd" clip-rule="evenodd" d="M5.02551 27.634L9.98788 23.3472L10.916 24.4205L5.61266 29.1871L5.02551 27.6277V27.634Z" fill="white"/>
<path fill-rule="evenodd" clip-rule="evenodd" d="M7.67088 21.0933L12.911 27.2362L11.6483 28.3095L6.40819 22.1665L7.67088 21.0933ZM4.15429 24.0921L9.39445 30.2351L8.13176 31.3084L2.8916 25.1654L4.15429 24.0921Z" fill="black"/>
</g>
</svg>
