<svg width="25" height="19" viewBox="0 0 25 19" fill="none" xmlns="http://www.w3.org/2000/svg">
<path d="M12.6243 0C15.1433 0 17.8313 0.951085 20.2492 2.98702C22.0358 4.49157 23.5819 6.42565 24.8889 8.78189C25.0245 9.02487 25.0369 9.32063 24.9222 9.57343C23.704 12.2733 22.0925 14.3374 20.0876 15.7487C17.528 17.549 14.8265 18.4081 12.6687 18.4081C10.236 18.4081 8.06474 17.7638 5.59136 15.8383C3.64693 14.3264 1.93677 12.2782 0.457178 9.70229C0.384924 9.57625 0.344785 9.43451 0.340272 9.28947C0.335758 9.14443 0.367006 9.00049 0.431285 8.87024C1.3363 7.03803 2.71355 5.24999 4.55811 3.49876C7.04505 1.13885 9.99807 0 12.6243 0ZM12.6687 4.17986C10.0203 4.17986 7.87239 6.37902 7.87239 9.09237C7.87239 11.8045 10.0203 14.0036 12.6687 14.0036C15.3184 14.0036 17.4651 11.8045 17.4651 9.09237C17.4651 6.38024 15.3184 4.17986 12.67 4.17986M12.67 5.9139C14.3838 5.9139 15.7734 7.33746 15.7734 9.09237C15.7734 10.8473 14.3838 12.2708 12.67 12.2708C10.9561 12.2708 9.56652 10.8473 9.56652 9.09237C9.56652 7.33746 10.9561 5.9139 12.67 5.9139Z" fill="#B4B4B4"/>
</svg>
