<svg width="43" height="49" viewBox="0 0 43 49" fill="none" xmlns="http://www.w3.org/2000/svg">
<path d="M26.5137 20.9507C26.5137 19.5876 25.9687 18.2803 24.9985 17.3164C24.0283 16.3525 22.7125 15.811 21.3404 15.811C19.9684 15.811 18.6525 16.3525 17.6823 17.3164C16.7121 18.2803 16.1671 19.5876 16.1671 20.9507C16.1671 22.3138 16.7121 23.6212 17.6823 24.585C18.6525 25.5489 19.9684 26.0904 21.3404 26.0904C22.7125 26.0904 24.0283 25.5489 24.9985 24.585C25.9687 23.6212 26.5137 22.3138 26.5137 20.9507ZM42.0337 20.9507C42.0337 30.7984 31.3525 41.5644 25.3377 46.848C24.2379 47.8238 22.8149 48.3632 21.3404 48.3632C19.8659 48.3632 18.443 47.8238 17.3431 46.848C11.3283 41.5644 0.647095 30.7984 0.647095 20.9507C0.647095 18.2509 1.18234 15.5775 2.22228 13.0832C3.26222 10.5889 4.78647 8.32246 6.70802 6.4134C8.62958 4.50433 10.9108 2.98998 13.4214 1.9568C15.932 0.923617 18.6229 0.391846 21.3404 0.391846C24.0579 0.391846 26.7488 0.923617 29.2594 1.9568C31.77 2.98998 34.0512 4.50433 35.9728 6.4134C37.8943 8.32246 39.4186 10.5889 40.4585 13.0832C41.4985 15.5775 42.0337 18.2509 42.0337 20.9507ZM38.5848 20.9507C38.5848 16.4069 36.768 12.0492 33.5341 8.83628C30.3001 5.62334 25.9139 3.81832 21.3404 3.81832C16.7669 3.81832 12.3807 5.62334 9.14676 8.83628C5.9128 12.0492 4.09598 16.4069 4.09598 20.9507C4.09598 24.7472 6.21704 29.1571 9.51073 33.5704C12.732 37.8809 16.7086 41.7152 19.6263 44.2816C20.0958 44.7044 20.7068 44.9386 21.3404 44.9386C21.974 44.9386 22.585 44.7044 23.0545 44.2816C25.9723 41.7152 29.9523 37.8844 33.1701 33.5704C36.4638 29.1571 38.5848 24.7472 38.5848 20.9507Z" fill="#393939"/>
</svg>
