<svg width="16" height="20" viewBox="0 0 16 20" fill="none" xmlns="http://www.w3.org/2000/svg">
<path d="M1.17627 3.45559V17.239C1.17627 17.696 1.35779 18.1342 1.6809 18.4573C2.00401 18.7804 2.44225 18.9619 2.8992 18.9619H13.2368C13.6937 18.9619 14.1319 18.7804 14.4551 18.4573C14.7782 18.1342 14.9597 17.696 14.9597 17.239V7.19607C14.9597 6.96654 14.9138 6.73933 14.8247 6.52778C14.7357 6.31624 14.6052 6.12461 14.4411 5.96417L10.6162 2.2237C10.2943 1.90897 9.86204 1.73272 9.41186 1.73267H2.8992C2.44225 1.73267 2.00401 1.91419 1.6809 2.2373C1.35779 2.56041 1.17627 2.99864 1.17627 3.45559Z" stroke="#5D5D5D" stroke-width="1.72293" stroke-linecap="round" stroke-linejoin="round"/>
<path d="M9.79065 1.73267V5.17852C9.79065 5.63547 9.97217 6.0737 10.2953 6.39681C10.6184 6.71992 11.0566 6.90145 11.5136 6.90145H14.9594" stroke="#5D5D5D" stroke-width="1.72293" stroke-linejoin="round"/>
</svg>
