<svg width="157" height="157" viewBox="0 0 157 157" fill="none" xmlns="http://www.w3.org/2000/svg">
<circle cx="78.5" cy="78.5" r="78.5" fill="#E3E3E3"/>
<path d="M27.99 138.592C42.0985 150.45 59.9297 156.967 78.3601 157C96.7906 157.033 114.645 150.58 128.796 138.771L78.5 78.5L27.99 138.592Z" fill="#7C85C6"/>
<path d="M40.3163 83.6472C51.773 77.7067 55.5212 70.0335 55.9632 66.9395L66.3059 62.431L83.5441 87.8905L66.8363 110.963C62.2395 118.742 51.1894 133.24 43.7637 128.997C36.338 124.754 31.8297 114.499 30.5038 109.902C29.001 103.626 28.8595 89.5878 40.3163 83.6472Z" fill="#11021C"/>
<path d="M125.715 119.715C122.745 111.865 99.3718 101.063 88.0565 96.6427L67.3707 98.7643C40.32 109.107 39.2592 112.29 33.9551 115.737C29.7119 118.495 28.2091 131.453 27.8555 138.436L40.32 147.188L52.7845 152.757L67.9011 156.205L83.8132 157.001L109.803 150.636L129.163 138.436C128.739 125.282 126.953 122.633 125.715 119.715Z" fill="#7C85C6"/>
<circle cx="78.5093" cy="117.064" r="2.12162" fill="#120421"/>
<circle cx="78.5093" cy="127.141" r="2.12162" fill="#120421"/>
<circle cx="78.5093" cy="137.218" r="2.12162" fill="#120421"/>
<path d="M58.88 105.394C57.0236 92.399 70.5489 92.9294 70.8141 92.6642L77.4443 93.725C77.3559 93.0178 78.7704 91.8156 85.1352 92.6642C91.5001 93.5129 95.3897 97.9683 96.5389 100.09C98.8727 109.213 92.2073 111.847 88.5829 112.024C82.8545 111.388 79.124 106.278 77.9748 103.803C76.9139 106.773 74.7039 108.576 73.7315 109.107C63.7599 115.047 59.6757 109.107 58.88 105.394Z" fill="#FFFEFC"/>
<path d="M53.0417 84.7078C44.5552 73.6754 45.9697 53.5907 47.7377 44.9274L66.5674 34.5845L107.674 48.375L98.1265 73.0389L89.9053 70.1216V94.7855C90.3296 97.7558 87.6068 100.09 86.1924 100.885C73.6749 105.553 67.1862 100.178 65.5066 96.9071V88.6858C59.1418 90.171 54.5447 86.6526 53.0417 84.7078Z" fill="#FAE5D5"/>
<path d="M106.351 27.9549C93.3558 13.8992 71.8743 17.3468 71.3439 17.3468C52.8858 19.0441 43.4977 32.375 41.1108 38.8283C41.323 54.9526 51.8073 48.3756 57.023 43.0715C58.7203 54.104 70.2831 47.6684 75.8524 43.0715C73.7308 54.9526 81.6868 56.6853 85.9301 56.0665C90.8098 50.5502 95.389 54.2984 97.0686 56.8621C100.675 65.7729 93.4442 69.415 89.3777 70.1222V93.7252C93.621 95.4225 95.9194 99.0293 96.5382 100.621L101.047 102.742L103.964 103.695C107.323 96.7994 113.935 81.2607 115.633 72.7742C117.754 62.1661 119.346 42.0107 106.351 27.9549Z" fill="#100123"/>
</svg>
