<svg width="11" height="20" viewBox="0 0 11 20" fill="none" xmlns="http://www.w3.org/2000/svg">
<path d="M10.5033 9.67843L1.42708 1.03057C1.27563 0.886199 1.07444 0.805664 0.865208 0.805664C0.65598 0.805664 0.454782 0.886199 0.303342 1.03057L0.29357 1.04034C0.219899 1.11032 0.161239 1.19457 0.121152 1.28794C0.0810661 1.38131 0.0603943 1.48186 0.0603943 1.58348C0.0603943 1.68509 0.0810661 1.78564 0.121152 1.87901C0.161239 1.97239 0.219899 2.05663 0.29357 2.12661L8.84046 10.2696L0.29357 18.4094C0.219899 18.4793 0.161239 18.5636 0.121152 18.657C0.0810661 18.7503 0.0603943 18.8509 0.0603943 18.9525C0.0603943 19.0541 0.0810661 19.1547 0.121152 19.248C0.161239 19.3414 0.219899 19.4256 0.29357 19.4956L0.303342 19.5054C0.454782 19.6498 0.65598 19.7303 0.865208 19.7303C1.07444 19.7303 1.27563 19.6498 1.42708 19.5054L10.5033 10.8575C10.5831 10.7815 10.6466 10.69 10.6901 10.5887C10.7335 10.4873 10.7559 10.3782 10.7559 10.268C10.7559 10.1577 10.7335 10.0486 10.6901 9.94729C10.6466 9.84595 10.5831 9.75448 10.5033 9.67843Z" fill="white"/>
</svg>
