<svg width="21" height="22" viewBox="0 0 21 22" fill="none" xmlns="http://www.w3.org/2000/svg">
<path d="M17.1121 21.9583C18.8334 21.9583 20.2288 20.5629 20.2288 18.8416C20.2288 17.1204 18.8334 15.725 17.1121 15.725C15.3908 15.725 13.9954 17.1204 13.9954 18.8416C13.9954 20.5629 15.3908 21.9583 17.1121 21.9583Z" fill="white"/>
<path d="M4.64584 8.7124H6.20418V10.2707H4.64584V8.7124ZM4.64584 12.6082H6.20418V14.1666H4.64584V12.6082ZM4.64584 16.5041H6.20418V18.0624H4.64584V16.5041ZM7.76251 8.7124H13.9958V10.2707H7.76251V8.7124ZM7.76251 12.6082H13.9958V14.1666H7.76251V12.6082ZM7.76251 16.5041H10.8792V18.0624H7.76251V16.5041Z" fill="white"/>
<path d="M2.30833 20.3999V4.03743H4.64583V6.37493H13.9958V4.03743H16.3333V12.6083H17.8917V4.03743C17.8917 3.62414 17.7275 3.22777 17.4352 2.93553C17.143 2.64328 16.7466 2.4791 16.3333 2.4791H13.9958V1.69993C13.9958 1.28664 13.8317 0.890271 13.5394 0.598027C13.2472 0.305783 12.8508 0.141602 12.4375 0.141602H6.20417C5.79087 0.141602 5.3945 0.305783 5.10226 0.598027C4.81001 0.890271 4.64583 1.28664 4.64583 1.69993V2.4791H2.30833C1.89504 2.4791 1.49867 2.64328 1.20643 2.93553C0.914181 3.22777 0.75 3.62414 0.75 4.03743V20.3999C0.75 20.8132 0.914181 21.2096 1.20643 21.5018C1.49867 21.7941 1.89504 21.9583 2.30833 21.9583H10.8792V20.3999H2.30833ZM6.20417 1.69993H12.4375V4.8166H6.20417V1.69993Z" fill="white"/>
</svg>
