<svg width="66" height="32" viewBox="0 0 66 32" fill="none" xmlns="http://www.w3.org/2000/svg">
<path fill-rule="evenodd" clip-rule="evenodd" d="M0 0H66V2.4625H0V0ZM0 4.925H66V7.3875H0V4.925ZM0 9.84375H66V12.3125H0V9.84375ZM0 14.7688H66V17.2313H0V14.7688ZM0 19.6938H66V22.1562H0V19.6938ZM0 24.6125H66V27.075H0V24.6125ZM0 29.5375H66V32H0V29.5375Z" fill="#BD3D44"/>
<path fill-rule="evenodd" clip-rule="evenodd" d="M0 2.4624H66V4.9249H0V2.4624ZM0 7.3874H66V9.84365H0V7.3874ZM0 12.3062H66V14.7687H0V12.3062ZM0 17.2312H66V19.6937H0V17.2312ZM0 22.1562H66V24.6187H0V22.1562ZM0 27.0749H66V29.5374H0V27.0749Z" fill="white"/>
<path fill-rule="evenodd" clip-rule="evenodd" d="M0 0H26.3986V17.2312H0V0Z" fill="#192F5D"/>
<path fill-rule="evenodd" clip-rule="evenodd" d="M2.19822 0.737793L2.44247 1.41904H3.2159L2.59173 1.83779L2.82919 2.52529L2.19822 2.10029L1.57405 2.51904L1.8115 1.83779L1.18054 1.41904H1.96755L2.19822 0.737793ZM6.60139 0.737793L6.83885 1.41904H7.61907L6.98811 1.83779L7.22557 2.52529L6.60139 2.10029L5.97043 2.51904L6.20789 1.83779L5.58371 1.41904H6.35715L6.60139 0.737793ZM10.9978 0.737793L11.242 1.41904H12.0087L11.3845 1.83779L11.6219 2.52529L10.991 2.10029L10.3668 2.51904L10.6043 1.83779L9.97331 1.41904H10.7535L10.9978 0.737793ZM15.4009 0.737793L15.6384 1.41904H16.4186L15.7877 1.83779L16.0319 2.52529L15.4009 2.10029L14.77 2.51904L15.0142 1.83779L14.3833 1.41904H15.1567L15.4009 0.737793ZM19.7973 0.737793L20.0416 1.41904H20.815L20.1908 1.83779L20.4283 2.52529L19.7973 2.10029L19.1731 2.51904L19.4106 1.83779L18.7864 1.41904H19.5599L19.7973 0.737793ZM24.2005 0.737793L24.4379 1.41904H25.2182L24.5872 1.83779L24.8314 2.52529L24.2005 2.10029L23.5695 2.51904L23.8138 1.83779L23.1828 1.41904H23.963L24.2005 0.737793ZM4.4032 2.46279L4.64066 3.14404H5.42088L4.78992 3.56279L5.02059 4.24404L4.40998 3.82529L3.77902 4.24404L4.00291 3.56279L3.3923 3.14404H4.16574L4.4032 2.46279ZM8.79958 2.46279L9.04382 3.14404H9.81726L9.1863 3.56279L9.43054 4.24404L8.79958 3.82529L8.16862 4.24404L8.41286 3.56279L7.7819 3.14404H8.56212L8.79958 2.46279ZM13.2027 2.46279L13.4402 3.14404H14.2204L13.5895 3.56279L13.8269 4.24404L13.2027 3.82529L12.5718 4.24404L12.8092 3.56279L12.1851 3.14404H12.9585L13.2027 2.46279ZM17.5991 2.46279L17.8434 3.14404H18.6168L17.9858 3.56279L18.2301 4.24404L17.5991 3.82529L16.975 4.24404L17.2124 3.56279L16.5814 3.14404H17.3685L17.5991 2.46279ZM22.0023 2.46279L22.2398 3.14404H23.02L22.389 3.56279L22.6265 4.24404L22.0023 3.82529L21.3713 4.24404L21.6088 3.56279L20.9846 3.14404H21.7581L22.0023 2.46279ZM2.19822 4.18154L2.44247 4.87529H3.2159L2.59173 5.29404L2.82919 5.97529L2.19822 5.55029L1.57405 5.97529L1.8115 5.28779L1.18054 4.86904H1.96755L2.19822 4.18154ZM6.60139 4.18154L6.83885 4.86904H7.61907L6.98811 5.28779L7.22557 5.96904L6.60139 5.54404L5.97043 5.96904L6.20789 5.28154L5.58371 4.86279H6.35715L6.60139 4.18154ZM10.9978 4.18154L11.242 4.86904H12.0087L11.3845 5.28779L11.6219 5.96904L10.991 5.54404L10.3668 5.96904L10.6043 5.28154L9.97331 4.86279H10.7535L10.9978 4.18154ZM15.4009 4.18154L15.6384 4.86904H16.4186L15.7877 5.28779L16.0319 5.96904L15.4009 5.54404L14.77 5.96904L15.0142 5.28154L14.3833 4.86279H15.1567L15.4009 4.18154ZM19.7973 4.18154L20.0416 4.86904H20.815L20.1908 5.28779L20.4283 5.96904L19.7973 5.54404L19.1731 5.96904L19.4106 5.28154L18.7864 4.86279H19.5599L19.7973 4.18154ZM24.2005 4.18154L24.4379 4.86904H25.2182L24.5872 5.28779L24.8314 5.96904L24.2005 5.54404L23.5695 5.96904L23.8138 5.28154L23.1828 4.86279H23.963L24.2005 4.18154ZM4.4032 5.90654L4.64066 6.58779H5.42088L4.78992 7.00654L5.02738 7.69404L4.4032 7.26904L3.77224 7.68779L4.00969 7.00654L3.38552 6.58779H4.15896L4.4032 5.90654ZM8.79958 5.90654L9.04382 6.58779H9.81726L9.1863 7.00654L9.43054 7.69404L8.79958 7.26904L8.16862 7.68779L8.41286 7.00654L7.7819 6.58779H8.56212L8.79958 5.90654ZM13.2027 5.90654L13.4402 6.58779H14.2204L13.5895 7.00654L13.8269 7.69404L13.2027 7.26904L12.5718 7.68779L12.8092 7.00654L12.1851 6.58779H12.9585L13.2027 5.90654ZM17.5991 5.90654L17.8434 6.58779H18.6168L17.9926 7.00654L18.2301 7.69404L17.5991 7.26904L16.975 7.68779L17.2124 7.00654L16.5814 6.58779H17.3685L17.5991 5.90654ZM22.0023 5.90654L22.2398 6.58779H23.02L22.389 7.00654L22.6265 7.69404L22.0023 7.26904L21.3713 7.68779L21.6088 7.00654L20.9846 6.58779H21.7581L22.0023 5.90654ZM2.19822 7.63154L2.44247 8.31279H3.2159L2.59173 8.73154L2.82919 9.41904L2.19822 8.99404L1.57405 9.41279L1.8115 8.73154L1.18054 8.31279H1.96755L2.19822 7.63154ZM6.60139 7.63154L6.83885 8.31279H7.61907L6.98811 8.73154L7.22557 9.41279L6.60139 8.99404L5.97043 9.41279L6.20789 8.73154L5.58371 8.31279H6.35715L6.60139 7.63154ZM10.9978 7.63154L11.242 8.31279H12.0087L11.3845 8.73154L11.6219 9.41904L10.991 8.99404L10.3668 9.41279L10.6043 8.73154L9.97331 8.31279H10.7535L10.9978 7.63154ZM15.4009 7.63154L15.6384 8.31279H16.4186L15.7877 8.73154L16.0319 9.41904L15.4009 8.99404L14.77 9.41279L15.0142 8.73154L14.3833 8.31279H15.1567L15.4009 7.63154ZM19.7973 7.63154L20.0416 8.31279H20.815L20.1908 8.73154L20.4283 9.41904L19.7973 8.99404L19.1731 9.41279L19.4106 8.73154L18.7864 8.31279H19.5599L19.7973 7.63154ZM24.2005 7.63154L24.4379 8.31279H25.2182L24.5872 8.73154L24.8314 9.41904L24.2005 8.99404L23.5695 9.41279L23.8138 8.73154L23.1828 8.31279H23.963L24.2005 7.63154ZM4.4032 9.35654L4.64066 10.0378H5.42088L4.78992 10.4565L5.02738 11.1378L4.4032 10.7128L3.77224 11.1378L4.00969 10.4503L3.38552 10.0315H4.15896L4.4032 9.35654ZM8.79958 9.35654L9.04382 10.0378H9.81726L9.1863 10.4565L9.43054 11.1378L8.79958 10.7128L8.16862 11.1378L8.41286 10.4503L7.7819 10.0315H8.56212L8.79958 9.35654ZM13.2027 9.35654L13.4402 10.0378H14.2204L13.5895 10.4565L13.8269 11.1378L13.2027 10.7128L12.5718 11.1378L12.8092 10.4503L12.1851 10.0315H12.9585L13.2027 9.35654ZM17.5991 9.35654L17.8434 10.0378H18.6168L17.9926 10.4565L18.2301 11.1378L17.5991 10.7128L16.975 11.1378L17.2124 10.4503L16.5814 10.0315H17.3685L17.5991 9.35654ZM22.0023 9.35654L22.2398 10.0378H23.02L22.389 10.4565L22.6265 11.1378L22.0023 10.7128L21.3713 11.1378L21.6088 10.4503L20.9846 10.0315H21.7581L22.0023 9.35654ZM2.19822 11.0753L2.44247 11.7628H3.2159L2.59173 12.1815L2.82919 12.8565L2.19822 12.4378L1.57405 12.8565L1.8115 12.1753L1.18054 11.7565H1.96755L2.19822 11.0753ZM6.60139 11.0753L6.83885 11.7628H7.61907L6.98811 12.1815L7.23235 12.8565L6.60139 12.4378L5.97043 12.8565L6.21467 12.1753L5.58371 11.7565H6.35715L6.60139 11.0753ZM10.9978 11.0753L11.242 11.7628H12.0087L11.3845 12.1815L11.6219 12.8565L10.991 12.4378L10.3668 12.8565L10.6043 12.1753L9.97331 11.7565H10.7535L10.9978 11.0753ZM15.4009 11.0753L15.6384 11.7628H16.4186L15.7877 12.1815L16.0319 12.8565L15.4009 12.4378L14.77 12.8565L15.0142 12.1753L14.3833 11.7565H15.1567L15.4009 11.0753ZM19.7973 11.0753L20.0416 11.7628H20.815L20.1908 12.1815L20.4283 12.8565L19.7973 12.4378L19.1731 12.8565L19.4106 12.1753L18.7864 11.7565H19.5599L19.7973 11.0753ZM24.2005 11.0753L24.4379 11.7628H25.2182L24.5872 12.1815L24.8314 12.8565L24.2005 12.4378L23.5695 12.8565L23.8138 12.1753L23.1828 11.7565H23.963L24.2005 11.0753ZM4.4032 12.8003L4.64066 13.4815H5.42088L4.78992 13.9003L5.02738 14.5878L4.4032 14.1628L3.77224 14.5815L4.00969 13.9003L3.38552 13.4815H4.15896L4.4032 12.8003ZM8.79958 12.8003L9.04382 13.4815H9.81726L9.1863 13.9003L9.43054 14.5878L8.79958 14.1628L8.16862 14.5815L8.41286 13.9003L7.7819 13.4815H8.56212L8.79958 12.8003ZM13.2027 12.8003L13.4402 13.4815H14.2204L13.5895 13.9003L13.8269 14.5878L13.2027 14.1628L12.5718 14.5815L12.8092 13.9003L12.1851 13.4815H12.9585L13.2027 12.8003ZM17.5991 12.8003L17.8434 13.4815H18.6168L17.9926 13.9003L18.2301 14.5878L17.5991 14.1628L16.975 14.5815L17.2124 13.9003L16.5814 13.4815H17.3685L17.5991 12.8003ZM22.0023 12.8003L22.2398 13.4815H23.02L22.389 13.9003L22.6265 14.5878L22.0023 14.1628L21.3713 14.5815L21.6088 13.9003L20.9846 13.4815H21.7581L22.0023 12.8003ZM2.19822 14.5253L2.44247 15.2065H3.2159L2.59173 15.6253L2.82919 16.3065L2.19822 15.8878L1.57405 16.3065L1.8115 15.619L1.18054 15.2003H1.96755L2.19822 14.5253ZM6.60139 14.5253L6.83885 15.2065H7.61907L6.98811 15.6253L7.23235 16.3065L6.60139 15.8878L5.97043 16.3065L6.21467 15.619L5.58371 15.2003H6.35715L6.60139 14.5253ZM10.9978 14.5253L11.242 15.2065H12.0087L11.3981 15.6253L11.6355 16.3065L11.0046 15.8878L10.3804 16.3065L10.6178 15.619L9.98687 15.2003H10.7671L10.9978 14.5253ZM15.4009 14.5253L15.6384 15.2065H16.4186L15.7877 15.6253L16.0319 16.3065L15.4009 15.8878L14.77 16.3065L15.0142 15.619L14.3833 15.2003H15.1567L15.4009 14.5253ZM19.7973 14.5253L20.0416 15.2065H20.815L20.1908 15.6253L20.4283 16.3065L19.7973 15.8878L19.1731 16.3065L19.4106 15.619L18.7864 15.2003H19.5599L19.7973 14.5253ZM24.2005 14.5253L24.4379 15.2065H25.2182L24.5872 15.6253L24.8314 16.3065L24.2005 15.8878L23.5695 16.3065L23.8138 15.619L23.1828 15.2003H23.963L24.2005 14.5253Z" fill="white"/>
</svg>
