<svg width="26" height="25" viewBox="0 0 26 25" fill="none" xmlns="http://www.w3.org/2000/svg">
<path d="M25.6589 23.3654C23.7978 20.163 20.9298 17.8667 17.5828 16.7782C19.2384 15.7972 20.5247 14.3025 21.2442 12.5235C21.9636 10.7445 22.0764 8.77965 21.5653 6.93065C21.0542 5.08165 19.9475 3.45075 18.415 2.28842C16.8825 1.12609 15.009 0.496582 13.0822 0.496582C11.1555 0.496582 9.28203 1.12609 7.74953 2.28842C6.21703 3.45075 5.11025 5.08165 4.59915 6.93065C4.08805 8.77965 4.20089 10.7445 4.92034 12.5235C5.6398 14.3025 6.92609 15.7972 8.58167 16.7782C5.23465 17.8655 2.36665 20.1618 0.505567 23.3654C0.437318 23.4762 0.392048 23.5994 0.37243 23.7279C0.352812 23.8563 0.359242 23.9874 0.391341 24.1134C0.42344 24.2393 0.480558 24.3576 0.559324 24.4612C0.638091 24.5648 0.73691 24.6517 0.849953 24.7167C0.962995 24.7816 1.08797 24.8234 1.21751 24.8396C1.34704 24.8557 1.47851 24.8459 1.60416 24.8106C1.72981 24.7754 1.84709 24.7154 1.94908 24.6343C2.05108 24.5532 2.13572 24.4526 2.19802 24.3384C4.50024 20.3783 8.56945 18.0139 13.0822 18.0139C17.595 18.0139 21.6643 20.3783 23.9665 24.3384C24.0288 24.4526 24.1134 24.5532 24.2154 24.6343C24.3174 24.7154 24.4347 24.7754 24.5603 24.8106C24.686 24.8459 24.8175 24.8557 24.947 24.8396C25.0765 24.8234 25.2015 24.7816 25.3145 24.7167C25.4276 24.6517 25.5264 24.5648 25.6052 24.4612C25.6839 24.3576 25.7411 24.2393 25.7732 24.1134C25.8053 23.9874 25.8117 23.8563 25.7921 23.7279C25.7724 23.5994 25.7272 23.4762 25.6589 23.3654ZM6.23913 9.2569C6.23913 7.90981 6.64047 6.59297 7.3924 5.47291C8.14433 4.35284 9.21308 3.47986 10.4635 2.96435C11.7139 2.44884 13.0898 2.31396 14.4173 2.57677C15.7447 2.83957 16.964 3.48826 17.9211 4.44079C18.8781 5.39333 19.5298 6.60694 19.7939 7.92814C20.0579 9.24935 19.9224 10.6188 19.4045 11.8634C18.8865 13.1079 18.0094 14.1716 16.8841 14.9201C15.7587 15.6685 14.4357 16.0679 13.0822 16.0679C11.2679 16.066 9.52849 15.3478 8.24557 14.0709C6.96266 12.794 6.24107 11.0627 6.23913 9.2569Z" fill="#B4B4B4"/>
</svg>
