<svg width="56" height="56" viewBox="0 0 56 56" fill="none" xmlns="http://www.w3.org/2000/svg">
<circle cx="28" cy="28" r="28" fill="#D9D9D9" fill-opacity="0.5"/>
<path d="M46.953 24.2772C46.953 31.2082 28.4766 46.0262 28.4766 46.0262C28.4766 46.0262 28.4766 23.2361 28.4766 17.8242C28.4766 17.8242 31.2742 14.2393 36.8526 14.2393C42.4309 14.2393 46.953 18.8654 46.953 24.2772Z" fill="#FF0000"/>
<path d="M10.0001 24.1134C10.0001 31.0965 28.4766 46.0259 28.4766 46.0259C28.4766 46.0259 28.4766 23.0644 28.4766 17.6119C28.4766 17.6119 25.6789 14 20.1006 14C14.5222 14 10.0001 18.6609 10.0001 24.1134Z" fill="#FF0000"/>
<path fill-rule="evenodd" clip-rule="evenodd" d="M25.4425 22.0142C26.1235 22.0145 26.7369 22.3731 26.9954 22.922L30.6166 30.6116L31.5673 28.0088C31.7891 27.4016 32.4364 26.9892 33.1679 26.9892H37.871C38.7987 26.9892 39.5507 27.6444 39.5507 28.4525C39.5507 29.2606 38.7987 29.9158 37.871 29.9158H34.3961L32.417 35.3345C32.2028 35.9209 31.5904 36.3279 30.8846 36.3529C30.1788 36.3779 29.5305 36.0155 29.2624 35.4462L25.4385 27.3265L24.643 29.0096C24.3838 29.5579 23.7705 29.9158 23.0898 29.9158H19.0586C18.1309 29.9158 17.3789 29.2606 17.3789 28.4525C17.3789 27.6444 18.1309 26.9892 19.0586 26.9892H21.9649L23.8882 22.9203C24.1475 22.3717 24.7614 22.0138 25.4425 22.0142Z" fill="black"/>
</svg>
